<?xml version="1.0" standalone="no"?>
<!DOCTYPE svg PUBLIC "-//W3C//DTD SVG 20010904//EN"
 "http://www.w3.org/TR/2001/REC-SVG-20010904/DTD/svg10.dtd">
<svg version="1.0" xmlns="http://www.w3.org/2000/svg"
 width="360.000000pt" height="360.000000pt" viewBox="0 0 360.000000 360.000000"
 preserveAspectRatio="xMidYMid meet">
<metadata>
Created by potrace 1.15, written by Peter Selinger 2001-2017
</metadata>
<g transform="translate(0.000000,360.000000) scale(0.100000,-0.100000)"
fill="#000000" stroke="none">
<path d="M1660 3519 c-47 -4 -112 -13 -145 -19 -33 -6 -72 -13 -88 -16 -73
-14 -275 -82 -338 -115 -24 -13 -46 -24 -49 -24 -25 -5 -89 -48 -84 -57 4 -7
3 -8 -5 -4 -14 9 -164 -82 -156 -95 4 -5 0 -7 -7 -4 -7 3 -44 -23 -83 -57 -65
-57 -96 -92 -64 -72 12 7 12 5 0 -9 -7 -9 -19 -17 -25 -17 -6 0 -4 5 4 10 8 5
10 10 4 10 -13 0 -131 -126 -199 -214 -65 -84 -117 -174 -109 -187 4 -8 3 -9
-4 -5 -9 5 -51 -57 -57 -84 -1 -3 -11 -25 -23 -50 -57 -120 -144 -401 -128
-417 3 -3 1 -14 -4 -24 -20 -37 -31 -259 -20 -404 7 -77 14 -142 18 -145 4 -3
8 -21 10 -39 8 -105 105 -393 158 -471 13 -19 24 -39 24 -45 1 -19 106 -175
114 -168 4 5 7 3 6 -2 -5 -25 1 -37 16 -31 8 3 13 2 9 -3 -9 -16 7 -42 22 -37
8 3 11 2 8 -4 -15 -24 232 -269 256 -254 8 5 9 3 4 -5 -8 -14 30 -46 55 -46 8
0 15 -7 15 -15 0 -8 8 -14 17 -14 10 1 16 -3 15 -8 -1 -5 12 -17 28 -27 17 -9
42 -25 57 -35 15 -10 33 -14 39 -10 8 4 9 3 5 -4 -8 -14 50 -46 70 -38 8 3 12
1 9 -4 -7 -11 93 -62 106 -54 5 3 9 1 9 -4 0 -5 12 -14 26 -20 20 -10 24 -10
18 0 -4 7 1 6 12 -3 27 -23 90 -42 116 -34 16 4 19 4 9 -3 -10 -7 13 -16 78
-31 50 -12 96 -19 102 -16 5 4 16 2 23 -4 34 -28 374 -32 551 -6 336 49 697
235 948 488 427 431 596 1037 456 1632 -12 50 -26 98 -31 108 -8 16 -80 17
-1413 15 -935 -2 -1401 0 -1395 7 14 17 13 365 -1 365 -7 0 -10 2 -7 5 3 3
593 5 1311 5 914 0 1307 3 1307 10 0 18 -49 85 -62 85 -6 0 -13 7 -15 15 -4
13 -3 13 6 0 6 -8 11 -11 11 -7 0 12 -53 77 -63 77 -5 0 -5 -6 -1 -12 5 -9 2
-9 -9 1 -18 15 -23 26 -7 16 31 -19 -1 24 -78 104 -62 66 -92 90 -104 86 -9
-4 -19 -2 -23 4 -4 7 1 8 12 4 17 -6 17 -5 -1 15 -20 24 -42 30 -30 10 5 -8 1
-8 -12 2 -29 22 -30 24 -11 17 9 -4 17 -3 17 1 0 14 -39 32 -57 26 -13 -4 -14
-3 -5 3 10 7 9 13 -5 25 -40 35 -135 88 -145 82 -7 -4 -8 -2 -4 4 11 18 -234
138 -261 127 -8 -2 -12 -1 -9 4 15 24 -296 97 -475 111 -145 11 -143 11 -269
-1z m458 -2273 l-3 -675 -223 -4 c-209 -3 -260 1 -233 17 8 5 11 197 11 672
l0 664 225 0 225 0 -2 -674z"/>
</g>
</svg>
